G04*
G04 #@! TF.GenerationSoftware,Altium Limited,Altium Designer,19.1.8 (144)*
G04*
G04 Layer_Color=32896*
%FSLAX42Y42*%
%MOMM*%
G71*
G01*
G75*
%ADD12C,0.20*%
%ADD13C,0.13*%
%ADD15C,0.10*%
%ADD16C,0.05*%
D12*
X350Y240D02*
G03*
X350Y240I-10J0D01*
G01*
D02*
G03*
X350Y240I-10J0D01*
G01*
X2790Y4400D02*
G03*
X2790Y4400I-10J0D01*
G01*
D02*
G03*
X2790Y4400I-10J0D01*
G01*
X2120Y2290D02*
G03*
X2120Y2290I-10J0D01*
G01*
D02*
G03*
X2120Y2290I-10J0D01*
G01*
X6070Y2027D02*
G03*
X6070Y2027I-10J0D01*
G01*
D02*
G03*
X6070Y2027I-10J0D01*
G01*
X2970Y937D02*
G03*
X2970Y937I-10J0D01*
G01*
D02*
G03*
X2970Y937I-10J0D01*
G01*
X2570D02*
G03*
X2570Y937I-10J0D01*
G01*
D02*
G03*
X2570Y937I-10J0D01*
G01*
X2190Y947D02*
G03*
X2190Y947I-10J0D01*
G01*
D02*
G03*
X2190Y947I-10J0D01*
G01*
X5760Y2030D02*
G03*
X5760Y2030I-10J0D01*
G01*
D02*
G03*
X5760Y2030I-10J0D01*
G01*
D13*
X170Y320D02*
X420D01*
X170D02*
Y820D01*
X420D01*
Y270D02*
X1870D01*
Y870D01*
X420D02*
X1870D01*
X420Y270D02*
Y870D01*
X170Y320D02*
X420D01*
X170D02*
Y820D01*
X420D01*
Y270D02*
X1870D01*
Y870D01*
X420D02*
X1870D01*
X420Y270D02*
Y870D01*
D15*
X1350Y1840D02*
G03*
X1350Y1840I-50J0D01*
G01*
X1710Y1750D02*
Y2150D01*
X1210Y1750D02*
Y2150D01*
X1710D01*
X1210Y1750D02*
X1710D01*
X4910Y2028D02*
X5050D01*
X4910Y1813D02*
X5050D01*
X4910D02*
Y2028D01*
X5050Y1813D02*
Y2028D01*
X5032Y550D02*
X5247D01*
X5032Y690D02*
X5247D01*
X5032Y550D02*
Y690D01*
X5247Y550D02*
Y690D01*
X1410Y1950D02*
X1510D01*
X1460Y1900D02*
Y2000D01*
X4980Y1870D02*
Y1970D01*
X4930Y1920D02*
X5030D01*
X5140Y570D02*
Y670D01*
X5090Y620D02*
X5190D01*
D16*
X2841Y4248D02*
Y4552D01*
Y4248D02*
X3399D01*
Y4552D01*
X2841D02*
X3399D01*
X1735Y1580D02*
Y2320D01*
X1185Y1580D02*
Y2320D01*
X1735D01*
X1185Y1580D02*
X1735D01*
X1958Y2229D02*
X2262D01*
X1958Y1671D02*
Y2229D01*
Y1671D02*
X2262D01*
Y2229D01*
X4800Y2055D02*
X5160D01*
X4800Y1785D02*
X5160D01*
X4800D02*
Y2055D01*
X5160Y1785D02*
Y2055D01*
X5908Y1966D02*
X6212D01*
X5908Y1408D02*
Y1966D01*
Y1408D02*
X6212D01*
Y1966D01*
X3112Y318D02*
Y876D01*
X2808Y318D02*
X3112D01*
X2808D02*
Y876D01*
X3112D01*
X2712Y318D02*
Y876D01*
X2408Y318D02*
X2712D01*
X2408D02*
Y876D01*
X2712D01*
X2332Y328D02*
Y886D01*
X2028Y328D02*
X2332D01*
X2028D02*
Y886D01*
X2332D01*
X5598Y1969D02*
X5902D01*
X5598Y1411D02*
Y1969D01*
Y1411D02*
X5902D01*
Y1969D01*
X5005Y440D02*
X5275D01*
X5005Y800D02*
X5275D01*
X5005Y440D02*
Y800D01*
X5275Y440D02*
Y800D01*
M02*
