G04*
G04 #@! TF.GenerationSoftware,Altium Limited,Altium Designer,19.1.8 (144)*
G04*
G04 Layer_Physical_Order=1*
G04 Layer_Color=255*
%FSLAX42Y42*%
%MOMM*%
G71*
G01*
G75*
%ADD12C,0.20*%
%ADD13C,0.13*%
%ADD15C,0.10*%
%ADD16C,0.05*%
%ADD34R,2.00X1.25*%
%ADD35R,1.10X1.60*%
%ADD36R,1.60X1.10*%
%ADD37O,0.60X1.45*%
%ADD38R,0.85X0.40*%
%ADD39R,3.96X3.96*%
%ADD40R,0.40X0.85*%
%ADD41R,2.80X2.80*%
%ADD42R,2.20X2.80*%
%ADD43C,0.50*%
%ADD44C,1.27*%
%ADD45C,0.40*%
%ADD46C,0.70*%
%ADD47C,1.65*%
%ADD48R,1.65X1.65*%
%ADD49R,1.65X1.65*%
%ADD50C,4.00*%
%ADD51C,1.70*%
%ADD52C,0.40*%
%ADD53C,1.27*%
%ADD54C,0.60*%
G36*
X7260Y30D02*
X30D01*
Y4580D01*
X7260D01*
Y30D01*
D02*
G37*
%LPC*%
G36*
X3260Y4507D02*
Y4413D01*
X3354D01*
X3352Y4428D01*
X3341Y4454D01*
X3324Y4477D01*
X3301Y4494D01*
X3275Y4505D01*
X3260Y4507D01*
D02*
G37*
G36*
X3234D02*
X3219Y4505D01*
X3193Y4494D01*
X3170Y4477D01*
X3153Y4454D01*
X3142Y4428D01*
X3140Y4413D01*
X3234D01*
Y4507D01*
D02*
G37*
G36*
X3354Y4387D02*
X3260D01*
Y4293D01*
X3275Y4295D01*
X3301Y4306D01*
X3324Y4323D01*
X3341Y4346D01*
X3352Y4372D01*
X3354Y4387D01*
D02*
G37*
G36*
X3234D02*
X3140D01*
X3142Y4372D01*
X3153Y4346D01*
X3170Y4323D01*
X3193Y4306D01*
X3219Y4295D01*
X3234Y4293D01*
Y4387D01*
D02*
G37*
G36*
X3903Y4254D02*
X3890Y4253D01*
X3830D01*
Y4212D01*
X3601Y3983D01*
X3590Y3984D01*
X3571Y3982D01*
X3571Y3981D01*
X3390Y4162D01*
Y4202D01*
X3330D01*
X3317Y4204D01*
X3305Y4202D01*
X3170D01*
Y4057D01*
X3285D01*
X3511Y3831D01*
X3516Y3828D01*
Y3694D01*
X3295Y3473D01*
X3180D01*
Y3328D01*
X3315D01*
X3327Y3326D01*
X3340Y3328D01*
X3400D01*
Y3368D01*
X3504Y3472D01*
X3516Y3467D01*
Y3414D01*
X3305Y3203D01*
X3190D01*
Y3058D01*
X3325D01*
X3337Y3056D01*
X3350Y3058D01*
X3410D01*
Y3098D01*
X3614Y3302D01*
X3626Y3302D01*
X3830Y3098D01*
Y3058D01*
X3890D01*
X3903Y3056D01*
X3915Y3058D01*
X4050D01*
Y3203D01*
X3935D01*
X3833Y3305D01*
X3838Y3317D01*
X3840Y3317D01*
X3890D01*
X3903Y3316D01*
X3915Y3317D01*
X4050D01*
Y3462D01*
X3935D01*
X3682Y3715D01*
X3667Y3727D01*
X3664Y3728D01*
Y3836D01*
X3935Y4108D01*
X4050D01*
Y4253D01*
X3915D01*
X3903Y4254D01*
D02*
G37*
G36*
X3086Y4492D02*
X2901D01*
Y4358D01*
X2725Y4182D01*
X2717Y4171D01*
X2714Y4157D01*
Y3796D01*
X2667D01*
X2667Y3801D01*
X2655Y3841D01*
X2635Y3877D01*
X2609Y3909D01*
X2577Y3935D01*
X2541Y3955D01*
X2501Y3967D01*
X2460Y3971D01*
X2419Y3967D01*
X2379Y3955D01*
X2343Y3935D01*
X2311Y3909D01*
X2285Y3877D01*
X2265Y3841D01*
X2253Y3801D01*
X2249Y3760D01*
X2253Y3719D01*
X2265Y3679D01*
X2285Y3643D01*
X2311Y3611D01*
X2343Y3585D01*
X2379Y3565D01*
X2419Y3553D01*
X2460Y3549D01*
X2501Y3553D01*
X2541Y3565D01*
X2577Y3585D01*
X2609Y3611D01*
X2635Y3643D01*
X2655Y3679D01*
X2667Y3719D01*
X2667Y3724D01*
X2965D01*
Y3473D01*
X2900D01*
Y3328D01*
X2975D01*
Y3203D01*
X2910D01*
Y3058D01*
X3130D01*
Y3203D01*
X3046D01*
Y3328D01*
X3120D01*
Y3473D01*
X3036D01*
Y3750D01*
Y4057D01*
X3110D01*
Y4202D01*
X2890D01*
Y4057D01*
X2965D01*
Y3796D01*
X2786D01*
Y4142D01*
X2951Y4307D01*
X3086D01*
Y4492D01*
D02*
G37*
G36*
X1660Y4124D02*
X1641Y4122D01*
X1623Y4114D01*
X1608Y4102D01*
X1596Y4087D01*
X1591Y4076D01*
X1483Y3968D01*
X1172D01*
Y3552D01*
X1588D01*
Y3863D01*
X1712Y3988D01*
X1724Y4003D01*
X1732Y4021D01*
X1734Y4040D01*
Y4050D01*
X1732Y4069D01*
X1724Y4087D01*
X1712Y4102D01*
X1697Y4114D01*
X1679Y4122D01*
X1660Y4124D01*
D02*
G37*
G36*
X130Y4501D02*
X114Y4498D01*
X101Y4489D01*
X92Y4476D01*
X89Y4460D01*
X92Y4444D01*
X101Y4431D01*
X104Y4429D01*
Y3989D01*
X107Y3975D01*
X115Y3964D01*
X154Y3924D01*
X154Y3912D01*
X151Y3909D01*
X125Y3877D01*
X105Y3841D01*
X93Y3801D01*
X89Y3760D01*
X93Y3719D01*
X105Y3679D01*
X125Y3643D01*
X151Y3611D01*
X183Y3585D01*
X219Y3565D01*
X259Y3553D01*
X300Y3549D01*
X341Y3553D01*
X381Y3565D01*
X417Y3585D01*
X449Y3611D01*
X475Y3643D01*
X495Y3679D01*
X507Y3719D01*
X511Y3760D01*
X507Y3801D01*
X495Y3841D01*
X475Y3877D01*
X449Y3909D01*
X417Y3935D01*
X381Y3955D01*
X341Y3967D01*
X300Y3971D01*
X259Y3967D01*
X223Y3956D01*
X176Y4004D01*
Y4450D01*
X176Y4450D01*
X176Y4450D01*
X174Y4457D01*
X173Y4464D01*
X173Y4464D01*
X173Y4464D01*
X169Y4470D01*
X168Y4476D01*
X159Y4489D01*
X146Y4498D01*
X130Y4501D01*
D02*
G37*
G36*
X4330Y4253D02*
X4110D01*
Y4108D01*
X4184D01*
Y3785D01*
Y3462D01*
X4110D01*
Y3317D01*
X4184D01*
Y3203D01*
X4110D01*
Y3058D01*
X4330D01*
Y3203D01*
X4255D01*
Y3317D01*
X4330D01*
Y3462D01*
X4255D01*
Y3749D01*
X4335D01*
X4349Y3752D01*
X4360Y3760D01*
X4620Y4019D01*
X4807D01*
X4809Y4007D01*
X4769Y3995D01*
X4733Y3975D01*
X4701Y3949D01*
X4675Y3917D01*
X4655Y3881D01*
X4643Y3841D01*
X4639Y3800D01*
X4643Y3759D01*
X4655Y3719D01*
X4675Y3683D01*
X4701Y3651D01*
X4733Y3625D01*
X4769Y3605D01*
X4809Y3593D01*
X4850Y3589D01*
X4891Y3593D01*
X4931Y3605D01*
X4937Y3608D01*
X5308Y3238D01*
X5323Y3226D01*
X5341Y3218D01*
X5360Y3216D01*
X6500D01*
X6519Y3218D01*
X6537Y3226D01*
X6552Y3238D01*
X6923Y3608D01*
X6929Y3605D01*
X6969Y3593D01*
X7010Y3589D01*
X7051Y3593D01*
X7091Y3605D01*
X7127Y3625D01*
X7159Y3651D01*
X7185Y3683D01*
X7205Y3719D01*
X7217Y3759D01*
X7221Y3800D01*
X7217Y3841D01*
X7205Y3881D01*
X7185Y3917D01*
X7159Y3949D01*
X7127Y3975D01*
X7091Y3995D01*
X7051Y4007D01*
X7010Y4011D01*
X6969Y4007D01*
X6929Y3995D01*
X6893Y3975D01*
X6861Y3949D01*
X6835Y3917D01*
X6815Y3881D01*
X6803Y3841D01*
X6799Y3800D01*
X6803Y3759D01*
X6815Y3719D01*
X6818Y3713D01*
X6469Y3364D01*
X5391D01*
X5042Y3713D01*
X5045Y3719D01*
X5057Y3759D01*
X5061Y3800D01*
X5057Y3841D01*
X5045Y3881D01*
X5025Y3917D01*
X4999Y3949D01*
X4967Y3975D01*
X4931Y3995D01*
X4891Y4007D01*
X4893Y4019D01*
X5660D01*
X5722Y3958D01*
Y3592D01*
X5894D01*
Y3569D01*
X5883Y3564D01*
X5868Y3552D01*
X5856Y3537D01*
X5848Y3519D01*
X5846Y3500D01*
X5848Y3481D01*
X5856Y3463D01*
X5868Y3448D01*
X5883Y3436D01*
X5901Y3428D01*
X5920Y3426D01*
X5939Y3428D01*
X5957Y3436D01*
X5972Y3448D01*
X5984Y3463D01*
X5992Y3481D01*
X5994Y3500D01*
X5992Y3519D01*
X5984Y3537D01*
X5972Y3552D01*
X5966Y3558D01*
Y3592D01*
X6138D01*
Y4008D01*
X5772D01*
X5700Y4080D01*
X5689Y4088D01*
X5675Y4091D01*
X4605D01*
X4591Y4088D01*
X4580Y4080D01*
X4320Y3821D01*
X4255D01*
Y4108D01*
X4330D01*
Y4253D01*
D02*
G37*
G36*
X5065Y2330D02*
X4935D01*
Y2276D01*
X4795D01*
Y2330D01*
X4665D01*
Y2150D01*
X4795D01*
Y2204D01*
X4935D01*
Y2150D01*
X5065D01*
Y2330D01*
D02*
G37*
G36*
X1409Y2319D02*
Y2235D01*
X1453D01*
Y2265D01*
X1449Y2287D01*
X1436Y2305D01*
X1418Y2317D01*
X1409Y2319D01*
D02*
G37*
G36*
X1384D02*
X1375Y2317D01*
X1357Y2305D01*
X1344Y2287D01*
X1340Y2265D01*
Y2235D01*
X1384D01*
Y2319D01*
D02*
G37*
G36*
X1651Y2306D02*
X1635Y2303D01*
X1624Y2296D01*
X1621Y2294D01*
X1621Y2294D01*
X1621Y2294D01*
X1613Y2288D01*
X1606Y2282D01*
X1606Y2282D01*
X1606Y2282D01*
X1598Y2275D01*
X1586Y2260D01*
X1579Y2242D01*
X1577Y2230D01*
X1577Y2227D01*
X1564Y2228D01*
Y2265D01*
X1561Y2281D01*
X1552Y2294D01*
X1539Y2303D01*
X1524Y2306D01*
X1508Y2303D01*
X1495Y2294D01*
X1486Y2281D01*
X1483Y2265D01*
Y2180D01*
X1486Y2164D01*
X1486Y2164D01*
Y2101D01*
X1482Y2096D01*
X1479Y2080D01*
X1482Y2064D01*
X1491Y2051D01*
X1504Y2042D01*
X1520Y2039D01*
X1536Y2042D01*
X1549Y2051D01*
X1558Y2064D01*
X1561Y2080D01*
X1558Y2096D01*
X1557Y2096D01*
Y2159D01*
X1561Y2164D01*
X1564Y2180D01*
Y2217D01*
X1577Y2218D01*
X1577Y2215D01*
X1579Y2203D01*
X1586Y2185D01*
X1598Y2170D01*
X1613Y2158D01*
X1618Y2156D01*
X1622Y2151D01*
X1635Y2142D01*
X1651Y2139D01*
X1666Y2142D01*
X1679Y2151D01*
X1682Y2156D01*
X1800D01*
X1819Y2158D01*
X1837Y2166D01*
X1852Y2178D01*
X1864Y2193D01*
X1872Y2211D01*
X1874Y2230D01*
X1872Y2249D01*
X1864Y2267D01*
X1852Y2282D01*
X1837Y2294D01*
X1819Y2302D01*
X1800Y2304D01*
X1659D01*
X1651Y2306D01*
D02*
G37*
G36*
X840Y2435D02*
X660D01*
Y2305D01*
X790D01*
X897Y2197D01*
X909Y2190D01*
X922Y2187D01*
X1229D01*
Y2180D01*
X1232Y2164D01*
X1241Y2151D01*
X1254Y2142D01*
X1270Y2139D01*
X1285Y2142D01*
X1298Y2151D01*
X1307Y2164D01*
X1310Y2180D01*
Y2265D01*
X1307Y2281D01*
X1298Y2294D01*
X1285Y2303D01*
X1270Y2306D01*
X1254Y2303D01*
X1241Y2294D01*
X1232Y2281D01*
X1229Y2265D01*
Y2258D01*
X937D01*
X840Y2355D01*
Y2435D01*
D02*
G37*
G36*
X1453Y2210D02*
X1409D01*
Y2126D01*
X1418Y2128D01*
X1436Y2140D01*
X1449Y2158D01*
X1453Y2180D01*
Y2210D01*
D02*
G37*
G36*
X1384D02*
X1340D01*
Y2180D01*
X1344Y2158D01*
X1357Y2140D01*
X1375Y2128D01*
X1384Y2126D01*
Y2210D01*
D02*
G37*
G36*
X2202Y2169D02*
X2017D01*
Y1984D01*
X2202D01*
Y2169D01*
D02*
G37*
G36*
X3395Y2000D02*
X3265D01*
Y1946D01*
X2995D01*
Y2000D01*
X2865D01*
Y1820D01*
X2995D01*
Y1874D01*
X3265D01*
Y1820D01*
X3395D01*
Y2000D01*
D02*
G37*
G36*
X4810Y2623D02*
X4590D01*
Y2516D01*
X4590Y2513D01*
Y2490D01*
X4515Y2415D01*
X4507Y2403D01*
X4504Y2390D01*
Y2330D01*
X4445D01*
Y2150D01*
X4474D01*
Y2015D01*
X4408Y1948D01*
X4404Y1948D01*
X4401Y1946D01*
X4340D01*
Y1982D01*
X4120D01*
Y1837D01*
X4340D01*
Y1874D01*
X4401D01*
X4404Y1872D01*
X4420Y1869D01*
X4436Y1872D01*
X4449Y1881D01*
X4458Y1894D01*
X4458Y1898D01*
X4512Y1952D01*
X4525Y1949D01*
X4867D01*
X4881Y1952D01*
X4886Y1955D01*
X4920D01*
Y2015D01*
X4886D01*
X4881Y2018D01*
X4867Y2021D01*
X4546D01*
Y2150D01*
X4575D01*
Y2267D01*
X4576Y2270D01*
Y2375D01*
X4651Y2450D01*
X4658Y2461D01*
X4661Y2475D01*
Y2478D01*
X4810D01*
Y2623D01*
D02*
G37*
G36*
X5090D02*
X4870D01*
Y2478D01*
X5039D01*
X5154Y2362D01*
Y2270D01*
X5155Y2267D01*
Y2150D01*
X5285D01*
Y2184D01*
X5316D01*
X5324Y2176D01*
Y1891D01*
X5321Y1889D01*
X5319Y1886D01*
X5215D01*
X5212Y1898D01*
X5212Y1898D01*
X5218Y1908D01*
X5221Y1920D01*
X5218Y1932D01*
X5212Y1942D01*
X5202Y1948D01*
X5190Y1951D01*
X5156D01*
X5151Y1952D01*
X5149Y1965D01*
X5170Y1986D01*
X5230D01*
X5249Y1988D01*
X5267Y1996D01*
X5282Y2008D01*
X5294Y2023D01*
X5302Y2041D01*
X5304Y2060D01*
X5302Y2079D01*
X5294Y2097D01*
X5282Y2112D01*
X5267Y2124D01*
X5249Y2132D01*
X5230Y2134D01*
X5139D01*
X5120Y2132D01*
X5102Y2124D01*
X5087Y2112D01*
X5040Y2066D01*
X5028Y2051D01*
X5021Y2033D01*
X5018Y2014D01*
X5021Y1994D01*
X5028Y1976D01*
X5039Y1962D01*
X5040Y1950D01*
X5040Y1950D01*
X5040Y1950D01*
Y1898D01*
X5040Y1890D01*
X5040Y1877D01*
Y1825D01*
X5090D01*
X5092Y1824D01*
X5328D01*
X5331Y1822D01*
X5345Y1819D01*
X5347Y1820D01*
X5350Y1819D01*
X5366Y1822D01*
X5379Y1831D01*
X5388Y1844D01*
X5389Y1850D01*
X5393Y1856D01*
X5393Y1856D01*
X5393Y1856D01*
X5394Y1863D01*
X5396Y1870D01*
X5396Y1870D01*
X5396Y1870D01*
Y2191D01*
X5393Y2204D01*
X5385Y2216D01*
X5356Y2245D01*
X5344Y2253D01*
X5331Y2256D01*
X5285D01*
Y2330D01*
X5226D01*
Y2377D01*
X5223Y2391D01*
X5215Y2402D01*
X5090Y2528D01*
Y2623D01*
D02*
G37*
G36*
X4935Y1900D02*
X4880D01*
Y1868D01*
X4935D01*
Y1900D01*
D02*
G37*
G36*
X4855D02*
X4800D01*
Y1868D01*
X4855D01*
Y1900D01*
D02*
G37*
G36*
X2775Y2000D02*
X2645D01*
Y1889D01*
X2641Y1888D01*
X2630Y1880D01*
X2617Y1868D01*
X2566D01*
X2566Y1868D01*
X2550Y1871D01*
X2534Y1868D01*
X2521Y1859D01*
X2512Y1846D01*
X2509Y1830D01*
X2512Y1814D01*
X2521Y1801D01*
X2534Y1792D01*
X2550Y1789D01*
X2566Y1792D01*
X2571Y1796D01*
X2632D01*
X2646Y1799D01*
X2657Y1807D01*
X2670Y1819D01*
X2680D01*
X2683Y1820D01*
X2775D01*
Y2000D01*
D02*
G37*
G36*
X3615D02*
X3485D01*
Y1820D01*
X3615D01*
Y1874D01*
X3840D01*
Y1837D01*
X4060D01*
Y1982D01*
X3840D01*
Y1946D01*
X3615D01*
Y2000D01*
D02*
G37*
G36*
X4935Y1842D02*
X4880D01*
Y1810D01*
X4935D01*
Y1842D01*
D02*
G37*
G36*
X4855D02*
X4800D01*
Y1810D01*
X4855D01*
Y1842D01*
D02*
G37*
G36*
X840Y2215D02*
X660D01*
Y2085D01*
X714D01*
Y2046D01*
X260D01*
X246Y2043D01*
X235Y2035D01*
X75Y1875D01*
X67Y1864D01*
X64Y1850D01*
Y1500D01*
X67Y1486D01*
X75Y1475D01*
X255Y1295D01*
X266Y1287D01*
X280Y1284D01*
X5135D01*
X5224Y1195D01*
Y1100D01*
X5195D01*
Y920D01*
X5224D01*
Y815D01*
X5195Y785D01*
X5175D01*
Y763D01*
X5172Y759D01*
X5169Y745D01*
Y732D01*
X5172Y719D01*
X5175Y714D01*
Y680D01*
X5235D01*
Y714D01*
X5238Y719D01*
X5240Y730D01*
X5285Y775D01*
X5293Y786D01*
X5296Y800D01*
Y920D01*
X5325D01*
Y1100D01*
X5296D01*
Y1210D01*
X5293Y1224D01*
X5285Y1235D01*
X5175Y1345D01*
X5164Y1353D01*
X5150Y1356D01*
X295D01*
X136Y1515D01*
Y1835D01*
X275Y1974D01*
X714D01*
Y1885D01*
X660D01*
Y1755D01*
X840D01*
Y1885D01*
X786D01*
Y2010D01*
Y2085D01*
X840D01*
Y2215D01*
D02*
G37*
G36*
X2110Y1916D02*
X2086Y1913D01*
X2063Y1904D01*
X2044Y1889D01*
X2029Y1870D01*
X2020Y1847D01*
X2017Y1823D01*
X2020Y1799D01*
X2029Y1776D01*
X2044Y1757D01*
X2063Y1742D01*
X2086Y1733D01*
X2110Y1730D01*
X2134Y1733D01*
X2157Y1742D01*
X2176Y1757D01*
X2191Y1776D01*
X2200Y1799D01*
X2203Y1823D01*
X2200Y1847D01*
X2191Y1870D01*
X2176Y1889D01*
X2157Y1904D01*
X2134Y1913D01*
X2110Y1916D01*
D02*
G37*
G36*
X5842Y1909D02*
X5657D01*
Y1724D01*
X5842D01*
Y1909D01*
D02*
G37*
G36*
X6152Y1907D02*
X5967D01*
Y1722D01*
X6152D01*
Y1907D01*
D02*
G37*
G36*
X1270Y1761D02*
X1254Y1758D01*
X1241Y1749D01*
X1232Y1736D01*
X1229Y1720D01*
Y1647D01*
X1217Y1636D01*
X840D01*
Y1665D01*
X660D01*
Y1535D01*
X840D01*
Y1564D01*
X1232D01*
X1245Y1567D01*
X1257Y1575D01*
X1278Y1596D01*
X1285Y1597D01*
X1298Y1606D01*
X1307Y1619D01*
X1310Y1635D01*
Y1720D01*
X1307Y1736D01*
X1298Y1749D01*
X1285Y1758D01*
X1270Y1761D01*
D02*
G37*
G36*
X1651D02*
X1635Y1758D01*
X1622Y1749D01*
X1613Y1736D01*
X1610Y1720D01*
Y1635D01*
X1613Y1619D01*
X1622Y1606D01*
X1635Y1597D01*
X1651Y1594D01*
X1666Y1597D01*
X1671Y1601D01*
X1692D01*
X1698Y1599D01*
X1698Y1599D01*
X1698Y1599D01*
X1730D01*
X1742Y1602D01*
X1752Y1608D01*
X1758Y1618D01*
X1761Y1630D01*
X1758Y1642D01*
X1752Y1652D01*
X1742Y1658D01*
X1730Y1661D01*
X1703D01*
X1697Y1662D01*
X1691Y1672D01*
Y1720D01*
X1688Y1736D01*
X1679Y1749D01*
X1666Y1758D01*
X1651Y1761D01*
D02*
G37*
G36*
X5750Y1656D02*
X5726Y1653D01*
X5703Y1644D01*
X5684Y1629D01*
X5669Y1610D01*
X5660Y1587D01*
X5657Y1563D01*
X5660Y1539D01*
X5669Y1516D01*
X5684Y1497D01*
X5703Y1482D01*
X5726Y1473D01*
X5750Y1470D01*
X5774Y1473D01*
X5797Y1482D01*
X5816Y1497D01*
X5831Y1516D01*
X5840Y1539D01*
X5843Y1563D01*
X5840Y1587D01*
X5831Y1610D01*
X5816Y1629D01*
X5797Y1644D01*
X5774Y1653D01*
X5750Y1656D01*
D02*
G37*
G36*
X1524Y1761D02*
X1508Y1758D01*
X1495Y1749D01*
X1486Y1736D01*
X1483Y1720D01*
Y1635D01*
X1486Y1619D01*
X1486Y1619D01*
Y1531D01*
X1482Y1526D01*
X1479Y1510D01*
X1482Y1494D01*
X1491Y1481D01*
X1504Y1472D01*
X1520Y1469D01*
X1536Y1472D01*
X1549Y1481D01*
X1558Y1494D01*
X1561Y1510D01*
X1558Y1526D01*
X1557Y1526D01*
Y1614D01*
X1561Y1619D01*
X1564Y1635D01*
Y1720D01*
X1561Y1736D01*
X1552Y1749D01*
X1539Y1758D01*
X1524Y1761D01*
D02*
G37*
G36*
X6060Y1653D02*
X6036Y1650D01*
X6013Y1641D01*
X5994Y1626D01*
X5979Y1607D01*
X5970Y1584D01*
X5967Y1560D01*
X5970Y1536D01*
X5979Y1513D01*
X5994Y1494D01*
X6013Y1479D01*
X6036Y1470D01*
X6060Y1467D01*
X6084Y1470D01*
X6107Y1479D01*
X6126Y1494D01*
X6141Y1513D01*
X6150Y1536D01*
X6153Y1560D01*
X6150Y1584D01*
X6141Y1607D01*
X6126Y1626D01*
X6107Y1641D01*
X6084Y1650D01*
X6060Y1653D01*
D02*
G37*
G36*
X1397Y1761D02*
X1381Y1758D01*
X1368Y1749D01*
X1359Y1736D01*
X1356Y1720D01*
Y1635D01*
X1359Y1619D01*
X1363Y1614D01*
Y1446D01*
X1362Y1446D01*
X1359Y1430D01*
X1362Y1414D01*
X1371Y1401D01*
X1384Y1392D01*
X1400Y1389D01*
X1416Y1392D01*
X1429Y1401D01*
X1438Y1414D01*
X1441Y1430D01*
X1438Y1446D01*
X1434Y1451D01*
Y1619D01*
X1434Y1619D01*
X1437Y1635D01*
Y1720D01*
X1434Y1736D01*
X1425Y1749D01*
X1412Y1758D01*
X1397Y1761D01*
D02*
G37*
G36*
X980Y1090D02*
X740D01*
Y790D01*
X980D01*
Y934D01*
X1050D01*
X1050Y934D01*
X1050Y934D01*
X1057Y936D01*
X1064Y937D01*
X1064Y937D01*
X1064Y937D01*
X1069Y941D01*
X1072Y942D01*
X1074D01*
X1074Y942D01*
X1090Y939D01*
X1106Y942D01*
X1119Y951D01*
X1128Y964D01*
X1131Y980D01*
X1128Y996D01*
X1119Y1009D01*
X1106Y1018D01*
X1090Y1021D01*
X1074Y1018D01*
X1069Y1014D01*
X1058D01*
X1058Y1014D01*
X1058Y1014D01*
X1051Y1012D01*
X1044Y1011D01*
X1044Y1011D01*
X1044Y1011D01*
X1039Y1007D01*
X1036Y1006D01*
X980D01*
Y1090D01*
D02*
G37*
G36*
X5030Y1241D02*
X5014Y1238D01*
X5001Y1229D01*
X4992Y1216D01*
X4989Y1200D01*
X4992Y1184D01*
X4996Y1179D01*
Y1100D01*
X4975D01*
Y920D01*
X5105D01*
Y1100D01*
X5068D01*
Y1184D01*
X5068Y1184D01*
X5071Y1200D01*
X5068Y1216D01*
X5059Y1229D01*
X5046Y1238D01*
X5030Y1241D01*
D02*
G37*
G36*
X5120Y800D02*
X5088D01*
Y745D01*
X5120D01*
Y800D01*
D02*
G37*
G36*
X5062D02*
X5030D01*
Y745D01*
X5062D01*
Y800D01*
D02*
G37*
G36*
X5120Y720D02*
X5088D01*
Y665D01*
X5120D01*
Y720D01*
D02*
G37*
G36*
X5062D02*
X5030D01*
Y665D01*
X5062D01*
Y720D01*
D02*
G37*
G36*
X3053Y816D02*
X2868D01*
Y632D01*
X3053D01*
Y816D01*
D02*
G37*
G36*
X2653D02*
X2468D01*
Y632D01*
X2653D01*
Y816D01*
D02*
G37*
G36*
X1470Y666D02*
X1445Y663D01*
X1422Y653D01*
X1402Y638D01*
X1387Y618D01*
X1377Y595D01*
X1374Y570D01*
X1377Y545D01*
X1387Y522D01*
X1402Y502D01*
X1422Y487D01*
X1445Y477D01*
X1470Y474D01*
X1495Y477D01*
X1518Y487D01*
X1538Y502D01*
X1553Y522D01*
X1563Y545D01*
X1566Y570D01*
X1563Y595D01*
X1553Y618D01*
X1538Y638D01*
X1518Y653D01*
X1495Y663D01*
X1470Y666D01*
D02*
G37*
G36*
X770D02*
X745Y663D01*
X722Y653D01*
X702Y638D01*
X687Y618D01*
X677Y595D01*
X674Y570D01*
X677Y545D01*
X687Y522D01*
X702Y502D01*
X722Y487D01*
X745Y477D01*
X770Y474D01*
X795Y477D01*
X818Y487D01*
X838Y502D01*
X853Y522D01*
X863Y545D01*
X866Y570D01*
X863Y595D01*
X853Y618D01*
X838Y638D01*
X818Y653D01*
X795Y663D01*
X770Y666D01*
D02*
G37*
G36*
X4105Y690D02*
X3975D01*
Y510D01*
X4055D01*
X4094Y471D01*
Y452D01*
X4097Y438D01*
X4104Y427D01*
X4137Y394D01*
X4148Y387D01*
X4162Y384D01*
X4766D01*
X4780Y387D01*
X4780Y387D01*
X4791Y394D01*
X4869Y472D01*
X5045D01*
Y455D01*
X5105D01*
X5109Y444D01*
Y400D01*
X5112Y388D01*
X5118Y378D01*
X5128Y372D01*
X5140Y369D01*
X5152Y372D01*
X5162Y378D01*
X5168Y388D01*
X5171Y400D01*
Y444D01*
X5175Y455D01*
X5183Y455D01*
X5235D01*
Y458D01*
X5300D01*
X5308Y448D01*
X5323Y436D01*
X5341Y428D01*
X5360Y426D01*
X5379Y428D01*
X5397Y436D01*
X5412Y448D01*
X5424Y463D01*
X5432Y481D01*
X5434Y500D01*
X5432Y519D01*
X5424Y537D01*
X5412Y552D01*
X5397Y564D01*
X5379Y572D01*
X5360Y574D01*
X5341Y572D01*
X5323Y564D01*
X5308Y552D01*
X5305Y550D01*
X5235D01*
Y560D01*
X5183D01*
X5175Y560D01*
X5162Y560D01*
X5110D01*
X5110Y560D01*
X5105D01*
Y560D01*
X5097Y560D01*
X5045D01*
Y543D01*
X4854D01*
X4840Y540D01*
X4840Y540D01*
X4829Y533D01*
X4751Y455D01*
X4177D01*
X4165Y467D01*
Y485D01*
X4163Y499D01*
X4155Y511D01*
X4105Y560D01*
Y690D01*
D02*
G37*
G36*
X2960Y563D02*
X2936Y560D01*
X2913Y551D01*
X2894Y536D01*
X2879Y517D01*
X2870Y494D01*
X2867Y470D01*
X2870Y446D01*
X2879Y423D01*
X2894Y404D01*
X2913Y389D01*
X2936Y380D01*
X2960Y377D01*
X2984Y380D01*
X3007Y389D01*
X3026Y404D01*
X3041Y423D01*
X3050Y446D01*
X3053Y470D01*
X3050Y494D01*
X3041Y517D01*
X3026Y536D01*
X3007Y551D01*
X2984Y560D01*
X2960Y563D01*
D02*
G37*
G36*
X2560D02*
X2536Y560D01*
X2513Y551D01*
X2494Y536D01*
X2479Y517D01*
X2470Y494D01*
X2467Y470D01*
X2470Y446D01*
X2479Y423D01*
X2494Y404D01*
X2513Y389D01*
X2536Y380D01*
X2560Y377D01*
X2584Y380D01*
X2607Y389D01*
X2626Y404D01*
X2641Y423D01*
X2650Y446D01*
X2653Y470D01*
X2650Y494D01*
X2641Y517D01*
X2626Y536D01*
X2607Y551D01*
X2584Y560D01*
X2560Y563D01*
D02*
G37*
G36*
X780Y350D02*
X540D01*
Y50D01*
X780D01*
Y164D01*
X845D01*
X852Y166D01*
X859Y167D01*
X859Y167D01*
X859Y167D01*
X864Y171D01*
X867Y172D01*
X874D01*
X874Y172D01*
X890Y169D01*
X906Y172D01*
X919Y181D01*
X928Y194D01*
X931Y210D01*
X928Y226D01*
X919Y239D01*
X906Y248D01*
X890Y251D01*
X874Y248D01*
X869Y244D01*
X853D01*
X846Y242D01*
X839Y241D01*
X839Y241D01*
X839Y241D01*
X834Y237D01*
X831Y236D01*
X780D01*
Y350D01*
D02*
G37*
G36*
X4030Y851D02*
X4014Y848D01*
X4001Y839D01*
X3992Y826D01*
X3992Y825D01*
X3968Y801D01*
X3960D01*
X3946Y798D01*
X3935Y790D01*
X3835Y690D01*
X3755D01*
Y579D01*
X3751Y578D01*
X3740Y570D01*
X3305Y136D01*
X2575D01*
X2266Y445D01*
X2270Y456D01*
X2273Y480D01*
X2270Y504D01*
X2261Y527D01*
X2246Y546D01*
X2227Y561D01*
X2216Y565D01*
Y642D01*
X2273D01*
Y827D01*
X2088D01*
Y712D01*
X2077D01*
X2063Y709D01*
X2051Y702D01*
X1700Y350D01*
X1450D01*
Y50D01*
X1750D01*
Y300D01*
X2091Y641D01*
X2123D01*
X2126Y642D01*
X2144D01*
Y565D01*
X2133Y561D01*
X2114Y546D01*
X2099Y527D01*
X2090Y504D01*
X2087Y480D01*
X2090Y456D01*
X2099Y433D01*
X2114Y414D01*
X2133Y399D01*
X2156Y390D01*
X2180Y387D01*
X2204Y390D01*
X2215Y394D01*
X2535Y75D01*
X2546Y67D01*
X2560Y64D01*
X3320D01*
X3334Y67D01*
X3345Y75D01*
X3780Y509D01*
X3790D01*
X3793Y510D01*
X3885D01*
Y640D01*
X3975Y729D01*
X3982D01*
X3996Y732D01*
X4008Y740D01*
X4039Y771D01*
X4046Y772D01*
X4059Y781D01*
X4068Y794D01*
X4071Y810D01*
X4068Y826D01*
X4059Y839D01*
X4046Y848D01*
X4030Y851D01*
D02*
G37*
%LPD*%
D12*
X350Y240D02*
G03*
X350Y240I-10J0D01*
G01*
D02*
G03*
X350Y240I-10J0D01*
G01*
X2790Y4400D02*
G03*
X2790Y4400I-10J0D01*
G01*
D02*
G03*
X2790Y4400I-10J0D01*
G01*
X2120Y2290D02*
G03*
X2120Y2290I-10J0D01*
G01*
D02*
G03*
X2120Y2290I-10J0D01*
G01*
X6070Y2027D02*
G03*
X6070Y2027I-10J0D01*
G01*
D02*
G03*
X6070Y2027I-10J0D01*
G01*
X2970Y937D02*
G03*
X2970Y937I-10J0D01*
G01*
D02*
G03*
X2970Y937I-10J0D01*
G01*
X2570D02*
G03*
X2570Y937I-10J0D01*
G01*
D02*
G03*
X2570Y937I-10J0D01*
G01*
X2190Y947D02*
G03*
X2190Y947I-10J0D01*
G01*
D02*
G03*
X2190Y947I-10J0D01*
G01*
X5760Y2030D02*
G03*
X5760Y2030I-10J0D01*
G01*
D02*
G03*
X5760Y2030I-10J0D01*
G01*
D13*
X170Y320D02*
X420D01*
X170D02*
Y820D01*
X420D01*
Y270D02*
X1870D01*
Y870D01*
X420D02*
X1870D01*
X420Y270D02*
Y870D01*
X170Y320D02*
X420D01*
X170D02*
Y820D01*
X420D01*
Y270D02*
X1870D01*
Y870D01*
X420D02*
X1870D01*
X420Y270D02*
Y870D01*
D15*
X1350Y1840D02*
G03*
X1350Y1840I-50J0D01*
G01*
X1710Y1750D02*
Y2150D01*
X1210Y1750D02*
Y2150D01*
X1710D01*
X1210Y1750D02*
X1710D01*
X4910Y2028D02*
X5050D01*
X4910Y1813D02*
X5050D01*
X4910D02*
Y2028D01*
X5050Y1813D02*
Y2028D01*
X5032Y550D02*
X5247D01*
X5032Y690D02*
X5247D01*
X5032Y550D02*
Y690D01*
X5247Y550D02*
Y690D01*
X1410Y1950D02*
X1510D01*
X1460Y1900D02*
Y2000D01*
X4980Y1870D02*
Y1970D01*
X4930Y1920D02*
X5030D01*
X5140Y570D02*
Y670D01*
X5090Y620D02*
X5190D01*
D16*
X2841Y4248D02*
Y4552D01*
Y4248D02*
X3399D01*
Y4552D01*
X2841D02*
X3399D01*
X1735Y1580D02*
Y2320D01*
X1185Y1580D02*
Y2320D01*
X1735D01*
X1185Y1580D02*
X1735D01*
X1958Y2229D02*
X2262D01*
X1958Y1671D02*
Y2229D01*
Y1671D02*
X2262D01*
Y2229D01*
X4800Y2055D02*
X5160D01*
X4800Y1785D02*
X5160D01*
X4800D02*
Y2055D01*
X5160Y1785D02*
Y2055D01*
X5908Y1966D02*
X6212D01*
X5908Y1408D02*
Y1966D01*
Y1408D02*
X6212D01*
Y1966D01*
X3112Y318D02*
Y876D01*
X2808Y318D02*
X3112D01*
X2808D02*
Y876D01*
X3112D01*
X2712Y318D02*
Y876D01*
X2408Y318D02*
X2712D01*
X2408D02*
Y876D01*
X2712D01*
X2332Y328D02*
Y886D01*
X2028Y328D02*
X2332D01*
X2028D02*
Y886D01*
X2332D01*
X5598Y1969D02*
X5902D01*
X5598Y1411D02*
Y1969D01*
Y1411D02*
X5902D01*
Y1969D01*
X5005Y440D02*
X5275D01*
X5005Y800D02*
X5275D01*
X5005Y440D02*
Y800D01*
X5275Y440D02*
Y800D01*
D34*
X3940Y4180D02*
D03*
X4220D02*
D03*
X3940Y3390D02*
D03*
X4220D02*
D03*
X3940Y3130D02*
D03*
X4220D02*
D03*
X3000Y4130D02*
D03*
X3280D02*
D03*
X3010Y3400D02*
D03*
X3290D02*
D03*
X3020Y3130D02*
D03*
X3300D02*
D03*
X3950Y1910D02*
D03*
X4230D02*
D03*
X4700Y2550D02*
D03*
X4980D02*
D03*
D35*
X3550Y1910D02*
D03*
X3330D02*
D03*
X2930D02*
D03*
X2710D02*
D03*
X4040Y600D02*
D03*
X3820D02*
D03*
X4730Y2240D02*
D03*
X4510D02*
D03*
X5220D02*
D03*
X5000D02*
D03*
X5260Y1010D02*
D03*
X5040D02*
D03*
D36*
X750Y1600D02*
D03*
Y1820D02*
D03*
Y2370D02*
D03*
Y2150D02*
D03*
D37*
X1651Y2222D02*
D03*
X1524D02*
D03*
X1397D02*
D03*
X1270D02*
D03*
X1651Y1678D02*
D03*
X1524D02*
D03*
X1397D02*
D03*
X1270D02*
D03*
D38*
X4867Y1855D02*
D03*
Y1985D02*
D03*
X5092D02*
D03*
Y1920D02*
D03*
Y1855D02*
D03*
D39*
X5930Y3800D02*
D03*
X1380Y3760D02*
D03*
D40*
X5075Y507D02*
D03*
X5140D02*
D03*
X5205D02*
D03*
Y732D02*
D03*
X5075D02*
D03*
D41*
X1600Y200D02*
D03*
D42*
X660D02*
D03*
X860Y940D02*
D03*
D43*
X2180Y480D02*
Y734D01*
X2123Y677D02*
X2180Y734D01*
X2077Y677D02*
X2123D01*
X1600Y200D02*
X2077Y677D01*
X4510Y2000D02*
X4525Y1985D01*
X4867D01*
X5920Y3500D02*
X5930Y3510D01*
Y3800D01*
X3590Y3663D02*
X3630D01*
X1520Y2080D02*
X1522Y2082D01*
Y2221D01*
X1524Y2222D01*
X750Y1820D02*
Y1820D01*
Y2010D02*
Y2150D01*
Y1820D02*
Y2010D01*
X5150Y1320D02*
X5260Y1210D01*
Y1010D02*
Y1210D01*
X280Y1320D02*
X5150D01*
X100Y1500D02*
X280Y1320D01*
X100Y1500D02*
Y1850D01*
X260Y2010D01*
X750D01*
X5675Y4055D02*
X5930Y3800D01*
X4335Y3785D02*
X4605Y4055D01*
X5350Y1860D02*
X5360Y1870D01*
X5345Y1855D02*
X5350Y1860D01*
X4605Y4055D02*
X5675D01*
X4130Y452D02*
X4162Y420D01*
X4130Y452D02*
Y485D01*
X4040Y575D02*
X4130Y485D01*
X3320Y100D02*
X3765Y545D01*
X2560Y100D02*
X3320D01*
X2180Y480D02*
X2560Y100D01*
X4162Y420D02*
X4766D01*
X4854Y507D01*
X4420Y1910D02*
X4510Y2000D01*
X4410Y1910D02*
X4420D01*
X2460Y3760D02*
X2750D01*
Y4157D01*
X2993Y4400D01*
X2750Y3760D02*
X2990D01*
X4220Y3390D02*
Y3785D01*
X3000Y3410D02*
Y3750D01*
X5360Y1870D02*
Y2191D01*
X4220Y3785D02*
Y4180D01*
Y3785D02*
X4335D01*
X3000Y3750D02*
Y4130D01*
X2990Y3760D02*
X3000Y3750D01*
Y3410D02*
X3010Y3400D01*
X4220Y3130D02*
Y3390D01*
X3010Y3140D02*
X3020Y3130D01*
X3010Y3140D02*
Y3400D01*
X3590Y3383D02*
X3650D01*
X3903Y3130D02*
X3940D01*
X3300D02*
X3337D01*
X3903Y3390D02*
X3940D01*
X3290Y3400D02*
X3327D01*
X3903Y4180D02*
X3940D01*
X3280Y4130D02*
X3317D01*
X1270Y1638D02*
Y1678D01*
X1232Y1600D02*
X1270Y1638D01*
X750Y1600D02*
X1232D01*
X922Y2222D02*
X1270D01*
X775Y2370D02*
X922Y2222D01*
X750Y2370D02*
X775D01*
X4510Y2240D02*
X4540Y2270D01*
Y2390D01*
X4625Y2475D01*
Y2513D01*
X4663Y2550D01*
X4700D01*
X5220Y2240D02*
X5240Y2220D01*
X5190Y2270D02*
X5220Y2240D01*
X5190Y2270D02*
Y2377D01*
X5017Y2550D02*
X5190Y2377D01*
X4980Y2550D02*
X5017D01*
X5331Y2220D02*
X5360Y2191D01*
X5240Y2220D02*
X5331D01*
X4730Y2240D02*
X5000D01*
X4510Y2000D02*
Y2240D01*
X4410Y1910D02*
X4410Y1910D01*
X4230Y1910D02*
X4410D01*
X3550D02*
X3950D01*
X3550Y1910D02*
X3550Y1910D01*
X2930Y1910D02*
X3330D01*
X2550Y1830D02*
X2552Y1832D01*
X2632D01*
X2655Y1855D01*
X2680D01*
X2710Y1885D01*
Y1910D01*
X1398Y1432D02*
X1400Y1430D01*
X1398Y1432D02*
Y1676D01*
X1397Y1678D02*
X1398Y1676D01*
X5205Y732D02*
Y745D01*
X5260Y800D01*
Y1010D01*
X5030Y1200D02*
X5032Y1198D01*
Y1018D02*
Y1198D01*
Y1018D02*
X5040Y1010D01*
X3960Y765D02*
X3982D01*
X4027Y810D01*
X4030D01*
X3820Y625D02*
X3960Y765D01*
X3820Y600D02*
Y625D01*
X3765Y545D02*
X3790D01*
X3820Y575D01*
Y600D01*
X1050Y970D02*
X1058Y978D01*
X1088D01*
X1090Y980D01*
X890Y970D02*
X1050D01*
X1520Y1510D02*
X1522Y1512D01*
Y1676D01*
X1524Y1678D01*
X845Y200D02*
X853Y208D01*
X888D01*
X890Y210D01*
X660Y200D02*
X845D01*
X860Y940D02*
X890Y970D01*
X130Y4460D02*
X140Y4450D01*
Y3989D02*
Y4450D01*
Y3989D02*
X300Y3829D01*
Y3760D02*
Y3829D01*
X4040Y575D02*
Y600D01*
X4854Y507D02*
X5075D01*
D44*
X5092Y2014D02*
X5139Y2060D01*
X5230D01*
X3611Y3889D02*
X3903Y4180D01*
X3590Y3867D02*
X3611Y3889D01*
X3317Y4130D02*
X3564Y3884D01*
X3327Y3400D02*
X3584Y3656D01*
X6500Y3290D02*
X7010Y3800D01*
X5360Y3290D02*
X6500D01*
X4850Y3800D02*
X5360Y3290D01*
X1658Y2230D02*
X1800D01*
X1651Y2222D02*
X1658Y2230D01*
X3590Y3383D02*
Y3650D01*
Y3867D02*
Y3910D01*
Y3663D02*
Y3867D01*
Y3650D02*
Y3663D01*
X1380Y3760D02*
X1660Y4040D01*
Y4050D01*
X3650Y3383D02*
X3903Y3130D01*
X3337D02*
X3590Y3383D01*
X3630Y3663D02*
X3903Y3390D01*
D45*
X5092Y1920D02*
X5190D01*
X1698Y1630D02*
X1730D01*
X5140Y400D02*
Y400D01*
Y507D01*
X1697Y1631D02*
X1698Y1630D01*
X1660Y1631D02*
X1697D01*
X1651Y1640D02*
X1660Y1631D01*
X1651Y1640D02*
Y1678D01*
X5092Y1855D02*
X5345D01*
D46*
X5356Y504D02*
X5360Y500D01*
X5220Y504D02*
X5356D01*
D47*
X3247Y4400D02*
D03*
X2110Y1823D02*
D03*
X6060Y1560D02*
D03*
X2960Y470D02*
D03*
X2560D02*
D03*
X2180Y480D02*
D03*
X5750Y1563D02*
D03*
D48*
X2993Y4400D02*
D03*
D49*
X2110Y2077D02*
D03*
X6060Y1814D02*
D03*
X2960Y724D02*
D03*
X2560D02*
D03*
X2180Y734D02*
D03*
X5750Y1817D02*
D03*
D50*
X7010Y3800D02*
D03*
X4850D02*
D03*
X300Y3760D02*
D03*
X2460D02*
D03*
D51*
X1470Y570D02*
D03*
X770D02*
D03*
D52*
X5230Y2060D02*
D03*
X5190Y1920D02*
D03*
X1730Y1630D02*
D03*
X5140Y400D02*
D03*
D53*
X5920Y3500D02*
D03*
X5360Y500D02*
D03*
X1800Y2230D02*
D03*
X1660Y4050D02*
D03*
D54*
X1520Y2080D02*
D03*
X5350Y1860D02*
D03*
X3590Y3650D02*
D03*
Y3910D02*
D03*
X4420Y1910D02*
D03*
X2550Y1830D02*
D03*
X1400Y1430D02*
D03*
X5030Y1200D02*
D03*
X4030Y810D02*
D03*
X1090Y980D02*
D03*
X1520Y1510D02*
D03*
X890Y210D02*
D03*
X130Y4460D02*
D03*
M02*
