G04*
G04 #@! TF.GenerationSoftware,Altium Limited,Altium Designer,19.1.8 (144)*
G04*
G04 Layer_Color=8388736*
%FSLAX42Y42*%
%MOMM*%
G71*
G01*
G75*
%ADD12C,0.20*%
%ADD13C,0.13*%
%ADD15C,0.10*%
%ADD16C,0.05*%
%ADD17R,2.20X1.45*%
%ADD18R,1.30X1.80*%
%ADD19R,1.80X1.30*%
%ADD20O,0.80X1.65*%
%ADD21R,1.05X0.60*%
%ADD22R,4.16X4.16*%
%ADD23R,0.60X1.05*%
%ADD24R,3.00X3.00*%
%ADD25R,2.40X3.00*%
%ADD26C,1.85*%
%ADD27R,1.85X1.85*%
%ADD28R,1.85X1.85*%
%ADD29C,4.20*%
%ADD30C,1.90*%
%ADD31C,0.60*%
%ADD32C,1.47*%
%ADD33C,0.80*%
D12*
X350Y240D02*
G03*
X350Y240I-10J0D01*
G01*
D02*
G03*
X350Y240I-10J0D01*
G01*
X2790Y4400D02*
G03*
X2790Y4400I-10J0D01*
G01*
D02*
G03*
X2790Y4400I-10J0D01*
G01*
X2120Y2290D02*
G03*
X2120Y2290I-10J0D01*
G01*
D02*
G03*
X2120Y2290I-10J0D01*
G01*
X6070Y2027D02*
G03*
X6070Y2027I-10J0D01*
G01*
D02*
G03*
X6070Y2027I-10J0D01*
G01*
X2970Y937D02*
G03*
X2970Y937I-10J0D01*
G01*
D02*
G03*
X2970Y937I-10J0D01*
G01*
X2570D02*
G03*
X2570Y937I-10J0D01*
G01*
D02*
G03*
X2570Y937I-10J0D01*
G01*
X2190Y947D02*
G03*
X2190Y947I-10J0D01*
G01*
D02*
G03*
X2190Y947I-10J0D01*
G01*
X5760Y2030D02*
G03*
X5760Y2030I-10J0D01*
G01*
D02*
G03*
X5760Y2030I-10J0D01*
G01*
D13*
X170Y320D02*
X420D01*
X170D02*
Y820D01*
X420D01*
Y270D02*
X1870D01*
Y870D01*
X420D02*
X1870D01*
X420Y270D02*
Y870D01*
X170Y320D02*
X420D01*
X170D02*
Y820D01*
X420D01*
Y270D02*
X1870D01*
Y870D01*
X420D02*
X1870D01*
X420Y270D02*
Y870D01*
D15*
X1350Y1840D02*
G03*
X1350Y1840I-50J0D01*
G01*
X1710Y1750D02*
Y2150D01*
X1210Y1750D02*
Y2150D01*
X1710D01*
X1210Y1750D02*
X1710D01*
X4910Y2028D02*
X5050D01*
X4910Y1813D02*
X5050D01*
X4910D02*
Y2028D01*
X5050Y1813D02*
Y2028D01*
X5032Y550D02*
X5247D01*
X5032Y690D02*
X5247D01*
X5032Y550D02*
Y690D01*
X5247Y550D02*
Y690D01*
X1410Y1950D02*
X1510D01*
X1460Y1900D02*
Y2000D01*
X4980Y1870D02*
Y1970D01*
X4930Y1920D02*
X5030D01*
X5140Y570D02*
Y670D01*
X5090Y620D02*
X5190D01*
D16*
X2841Y4248D02*
Y4552D01*
Y4248D02*
X3399D01*
Y4552D01*
X2841D02*
X3399D01*
X1735Y1580D02*
Y2320D01*
X1185Y1580D02*
Y2320D01*
X1735D01*
X1185Y1580D02*
X1735D01*
X1958Y2229D02*
X2262D01*
X1958Y1671D02*
Y2229D01*
Y1671D02*
X2262D01*
Y2229D01*
X4800Y2055D02*
X5160D01*
X4800Y1785D02*
X5160D01*
X4800D02*
Y2055D01*
X5160Y1785D02*
Y2055D01*
X5908Y1966D02*
X6212D01*
X5908Y1408D02*
Y1966D01*
Y1408D02*
X6212D01*
Y1966D01*
X3112Y318D02*
Y876D01*
X2808Y318D02*
X3112D01*
X2808D02*
Y876D01*
X3112D01*
X2712Y318D02*
Y876D01*
X2408Y318D02*
X2712D01*
X2408D02*
Y876D01*
X2712D01*
X2332Y328D02*
Y886D01*
X2028Y328D02*
X2332D01*
X2028D02*
Y886D01*
X2332D01*
X5598Y1969D02*
X5902D01*
X5598Y1411D02*
Y1969D01*
Y1411D02*
X5902D01*
Y1969D01*
X5005Y440D02*
X5275D01*
X5005Y800D02*
X5275D01*
X5005Y440D02*
Y800D01*
X5275Y440D02*
Y800D01*
D17*
X3940Y4180D02*
D03*
X4220D02*
D03*
X3940Y3390D02*
D03*
X4220D02*
D03*
X3940Y3130D02*
D03*
X4220D02*
D03*
X3000Y4130D02*
D03*
X3280D02*
D03*
X3010Y3400D02*
D03*
X3290D02*
D03*
X3020Y3130D02*
D03*
X3300D02*
D03*
X3950Y1910D02*
D03*
X4230D02*
D03*
X4700Y2550D02*
D03*
X4980D02*
D03*
D18*
X3550Y1910D02*
D03*
X3330D02*
D03*
X2930D02*
D03*
X2710D02*
D03*
X4040Y600D02*
D03*
X3820D02*
D03*
X4730Y2240D02*
D03*
X4510D02*
D03*
X5220D02*
D03*
X5000D02*
D03*
X5260Y1010D02*
D03*
X5040D02*
D03*
D19*
X750Y1600D02*
D03*
Y1820D02*
D03*
Y2370D02*
D03*
Y2150D02*
D03*
D20*
X1651Y2222D02*
D03*
X1524D02*
D03*
X1397D02*
D03*
X1270D02*
D03*
X1651Y1678D02*
D03*
X1524D02*
D03*
X1397D02*
D03*
X1270D02*
D03*
D21*
X4867Y1855D02*
D03*
Y1985D02*
D03*
X5092D02*
D03*
Y1920D02*
D03*
Y1855D02*
D03*
D22*
X5930Y3800D02*
D03*
X1380Y3760D02*
D03*
D23*
X5075Y507D02*
D03*
X5140D02*
D03*
X5205D02*
D03*
Y732D02*
D03*
X5075D02*
D03*
D24*
X1600Y200D02*
D03*
D25*
X660D02*
D03*
X860Y940D02*
D03*
D26*
X3247Y4400D02*
D03*
X2110Y1823D02*
D03*
X6060Y1560D02*
D03*
X2960Y470D02*
D03*
X2560D02*
D03*
X2180Y480D02*
D03*
X5750Y1563D02*
D03*
D27*
X2993Y4400D02*
D03*
D28*
X2110Y2077D02*
D03*
X6060Y1814D02*
D03*
X2960Y724D02*
D03*
X2560D02*
D03*
X2180Y734D02*
D03*
X5750Y1817D02*
D03*
D29*
X7010Y3800D02*
D03*
X4850D02*
D03*
X300Y3760D02*
D03*
X2460D02*
D03*
D30*
X1470Y570D02*
D03*
X770D02*
D03*
D31*
X5230Y2060D02*
D03*
X5190Y1920D02*
D03*
X1730Y1630D02*
D03*
X5140Y400D02*
D03*
D32*
X5920Y3500D02*
D03*
X5360Y500D02*
D03*
X1800Y2230D02*
D03*
X1660Y4050D02*
D03*
D33*
X1520Y2080D02*
D03*
X5350Y1860D02*
D03*
X3590Y3650D02*
D03*
Y3910D02*
D03*
X4420Y1910D02*
D03*
X2550Y1830D02*
D03*
X1400Y1430D02*
D03*
X5030Y1200D02*
D03*
X4030Y810D02*
D03*
X1090Y980D02*
D03*
X1520Y1510D02*
D03*
X890Y210D02*
D03*
X130Y4460D02*
D03*
M02*
