G04*
G04 #@! TF.GenerationSoftware,Altium Limited,Altium Designer,19.1.8 (144)*
G04*
G04 Layer_Physical_Order=2*
G04 Layer_Color=16711680*
%FSLAX42Y42*%
%MOMM*%
G71*
G01*
G75*
%ADD12C,0.20*%
%ADD13C,0.13*%
%ADD15C,0.10*%
%ADD16C,0.05*%
%ADD43C,0.50*%
%ADD44C,1.27*%
%ADD47C,1.65*%
%ADD48R,1.65X1.65*%
%ADD49R,1.65X1.65*%
%ADD50C,4.00*%
%ADD51C,1.70*%
%ADD52C,0.40*%
%ADD53C,1.27*%
%ADD54C,0.60*%
G36*
X7260Y30D02*
X30D01*
Y4580D01*
X7260D01*
Y30D01*
D02*
G37*
%LPC*%
G36*
X130Y4501D02*
X114Y4498D01*
X101Y4489D01*
X92Y4476D01*
X89Y4460D01*
X92Y4444D01*
X101Y4431D01*
X114Y4422D01*
X130Y4419D01*
X146Y4422D01*
X149Y4424D01*
X2761D01*
X2810Y4375D01*
X2822Y4367D01*
X2835Y4364D01*
X2901D01*
Y4307D01*
X3086D01*
Y4492D01*
X2901D01*
Y4436D01*
X2850D01*
X2801Y4485D01*
X2789Y4493D01*
X2775Y4496D01*
X149D01*
X146Y4498D01*
X130Y4501D01*
D02*
G37*
G36*
X3247Y4493D02*
X3223Y4490D01*
X3200Y4481D01*
X3181Y4466D01*
X3166Y4447D01*
X3157Y4424D01*
X3154Y4400D01*
X3157Y4376D01*
X3166Y4353D01*
X3181Y4334D01*
X3200Y4319D01*
X3223Y4310D01*
X3247Y4307D01*
X3271Y4310D01*
X3294Y4319D01*
X3313Y4334D01*
X3328Y4353D01*
X3337Y4376D01*
X3340Y4400D01*
X3337Y4424D01*
X3328Y4447D01*
X3313Y4466D01*
X3294Y4481D01*
X3271Y4490D01*
X3247Y4493D01*
D02*
G37*
G36*
X3450Y4124D02*
X1660D01*
X1641Y4122D01*
X1623Y4114D01*
X1608Y4102D01*
X1596Y4087D01*
X1588Y4069D01*
X1586Y4050D01*
X1588Y4031D01*
X1596Y4013D01*
X1608Y3998D01*
X1623Y3986D01*
X1641Y3978D01*
X1660Y3976D01*
X2404D01*
X2406Y3963D01*
X2379Y3955D01*
X2343Y3935D01*
X2311Y3909D01*
X2285Y3877D01*
X2265Y3841D01*
X2253Y3801D01*
X2249Y3760D01*
X2253Y3719D01*
X2265Y3679D01*
X2285Y3643D01*
X2311Y3611D01*
X2343Y3585D01*
X2379Y3565D01*
X2419Y3553D01*
X2460Y3549D01*
X2501Y3553D01*
X2541Y3565D01*
X2577Y3585D01*
X2609Y3611D01*
X2635Y3643D01*
X2655Y3679D01*
X2667Y3719D01*
X2671Y3760D01*
X2667Y3801D01*
X2655Y3841D01*
X2635Y3877D01*
X2609Y3909D01*
X2577Y3935D01*
X2541Y3955D01*
X2514Y3963D01*
X2516Y3976D01*
X3419D01*
X3538Y3858D01*
X3553Y3846D01*
X3571Y3838D01*
X3590Y3836D01*
X3609Y3838D01*
X3627Y3846D01*
X3642Y3858D01*
X3654Y3873D01*
X3662Y3891D01*
X3664Y3910D01*
X3662Y3929D01*
X3654Y3947D01*
X3642Y3962D01*
X3502Y4102D01*
X3487Y4114D01*
X3487Y4114D01*
X3480Y4117D01*
X3469Y4122D01*
X3465Y4122D01*
X3450Y4124D01*
D02*
G37*
G36*
X4850Y4011D02*
X4809Y4007D01*
X4769Y3995D01*
X4733Y3975D01*
X4701Y3949D01*
X4675Y3917D01*
X4655Y3881D01*
X4643Y3841D01*
X4639Y3800D01*
X4642Y3771D01*
X4600Y3728D01*
X3594D01*
X3594Y3728D01*
X3594Y3728D01*
X3585Y3727D01*
X3575Y3726D01*
X3575Y3726D01*
X3575Y3726D01*
X3571Y3724D01*
X3220D01*
X3201Y3722D01*
X3183Y3714D01*
X3168Y3702D01*
X1748Y2282D01*
X1736Y2267D01*
X1728Y2249D01*
X1726Y2230D01*
X1728Y2211D01*
X1736Y2193D01*
X1748Y2178D01*
X1763Y2166D01*
X1781Y2158D01*
X1800Y2156D01*
X1819Y2158D01*
X1837Y2166D01*
X1852Y2178D01*
X3251Y3576D01*
X3590D01*
X3590Y3576D01*
X3590Y3576D01*
X3600Y3577D01*
X3609Y3578D01*
X3609Y3578D01*
X3609Y3578D01*
X3613Y3580D01*
X4555D01*
X5987Y2148D01*
X5986Y2140D01*
Y2134D01*
X5230D01*
X5230Y2134D01*
X5211Y2132D01*
X5193Y2124D01*
X5178Y2112D01*
X5166Y2097D01*
X5158Y2079D01*
X5156Y2060D01*
X5158Y2041D01*
X5166Y2023D01*
X5178Y2008D01*
X5193Y1996D01*
X5211Y1988D01*
X5230Y1986D01*
X5986D01*
Y1907D01*
X5967D01*
Y1722D01*
X5986D01*
Y1615D01*
X5979Y1607D01*
X5970Y1584D01*
X5968Y1573D01*
X5338Y942D01*
X5326Y927D01*
X5318Y909D01*
X5316Y890D01*
Y561D01*
X5308Y552D01*
X5301Y544D01*
X5296Y537D01*
X5296Y537D01*
X5296Y537D01*
X5292Y529D01*
X5288Y519D01*
X5288Y519D01*
X5288Y519D01*
X5287Y511D01*
X5286Y500D01*
X5286Y500D01*
X5286Y500D01*
X5287Y490D01*
X5288Y481D01*
X5288Y481D01*
X5288Y481D01*
X5292Y472D01*
X5296Y463D01*
X5296Y463D01*
X5296Y463D01*
X5302Y454D01*
X5308Y448D01*
X5308Y448D01*
X5308Y448D01*
X5316Y441D01*
X5323Y436D01*
X5323Y436D01*
X5323Y436D01*
X5331Y432D01*
X5341Y428D01*
X5341Y428D01*
X5341Y428D01*
X5349Y427D01*
X5360Y426D01*
X5360Y426D01*
X5360Y426D01*
X5370Y427D01*
X5379Y428D01*
X5379Y428D01*
X5379Y428D01*
X5388Y432D01*
X5397Y436D01*
X5397Y436D01*
X5397Y436D01*
X5406Y442D01*
X5412Y448D01*
X5412Y448D01*
X5412Y448D01*
X5442Y478D01*
X5449Y486D01*
X5454Y493D01*
X5454Y493D01*
X5454Y493D01*
X5458Y502D01*
X5462Y511D01*
X5462Y511D01*
X5462Y511D01*
X5463Y520D01*
X5464Y530D01*
Y859D01*
X6073Y1468D01*
X6084Y1470D01*
X6107Y1479D01*
X6126Y1494D01*
X6141Y1513D01*
X6150Y1536D01*
X6153Y1560D01*
X6150Y1584D01*
X6141Y1607D01*
X6134Y1615D01*
Y1722D01*
X6152D01*
Y1907D01*
X6134D01*
Y2060D01*
Y2110D01*
X6144Y2123D01*
X6152Y2141D01*
X6154Y2160D01*
X6152Y2179D01*
X6144Y2197D01*
X6132Y2212D01*
X4737Y3608D01*
X4745Y3618D01*
X4769Y3605D01*
X4809Y3593D01*
X4850Y3589D01*
X4891Y3593D01*
X4931Y3605D01*
X4967Y3625D01*
X4999Y3651D01*
X5025Y3683D01*
X5045Y3719D01*
X5057Y3759D01*
X5061Y3800D01*
X5057Y3841D01*
X5045Y3881D01*
X5025Y3917D01*
X4999Y3949D01*
X4967Y3975D01*
X4931Y3995D01*
X4891Y4007D01*
X4850Y4011D01*
D02*
G37*
G36*
X7010D02*
X6969Y4007D01*
X6929Y3995D01*
X6893Y3975D01*
X6861Y3949D01*
X6835Y3917D01*
X6815Y3881D01*
X6803Y3841D01*
X6799Y3800D01*
X6803Y3759D01*
X6815Y3719D01*
X6835Y3683D01*
X6861Y3651D01*
X6893Y3625D01*
X6929Y3605D01*
X6969Y3593D01*
X7010Y3589D01*
X7051Y3593D01*
X7091Y3605D01*
X7127Y3625D01*
X7159Y3651D01*
X7185Y3683D01*
X7205Y3719D01*
X7217Y3759D01*
X7221Y3800D01*
X7217Y3841D01*
X7205Y3881D01*
X7185Y3917D01*
X7159Y3949D01*
X7127Y3975D01*
X7091Y3995D01*
X7051Y4007D01*
X7010Y4011D01*
D02*
G37*
G36*
X300Y3971D02*
X259Y3967D01*
X219Y3955D01*
X183Y3935D01*
X151Y3909D01*
X125Y3877D01*
X105Y3841D01*
X93Y3801D01*
X89Y3760D01*
X93Y3719D01*
X105Y3679D01*
X125Y3643D01*
X151Y3611D01*
X183Y3585D01*
X219Y3565D01*
X259Y3553D01*
X300Y3549D01*
X341Y3553D01*
X381Y3565D01*
X417Y3585D01*
X449Y3611D01*
X475Y3643D01*
X495Y3679D01*
X507Y3719D01*
X511Y3760D01*
X507Y3801D01*
X495Y3841D01*
X475Y3877D01*
X449Y3909D01*
X417Y3935D01*
X381Y3955D01*
X341Y3967D01*
X300Y3971D01*
D02*
G37*
G36*
X5933Y3588D02*
Y3513D01*
X6008D01*
X6007Y3523D01*
X5998Y3545D01*
X5983Y3563D01*
X5965Y3578D01*
X5943Y3587D01*
X5933Y3588D01*
D02*
G37*
G36*
X5907D02*
X5897Y3587D01*
X5875Y3578D01*
X5857Y3563D01*
X5842Y3545D01*
X5833Y3523D01*
X5832Y3513D01*
X5907D01*
Y3588D01*
D02*
G37*
G36*
X6008Y3487D02*
X5933D01*
Y3412D01*
X5943Y3413D01*
X5965Y3422D01*
X5983Y3437D01*
X5998Y3455D01*
X6007Y3477D01*
X6008Y3487D01*
D02*
G37*
G36*
X5907D02*
X5832D01*
X5833Y3477D01*
X5842Y3455D01*
X5857Y3437D01*
X5875Y3422D01*
X5897Y3413D01*
X5907Y3412D01*
Y3487D01*
D02*
G37*
G36*
X2202Y2169D02*
X2017D01*
Y2116D01*
X1539D01*
X1536Y2118D01*
X1520Y2121D01*
X1504Y2118D01*
X1491Y2109D01*
X1482Y2096D01*
X1479Y2080D01*
X1482Y2064D01*
X1491Y2051D01*
X1504Y2042D01*
X1520Y2039D01*
X1536Y2042D01*
X1539Y2044D01*
X2017D01*
Y1984D01*
X2202D01*
Y2169D01*
D02*
G37*
G36*
X5203Y1964D02*
Y1933D01*
X5234D01*
X5233Y1938D01*
X5223Y1953D01*
X5208Y1963D01*
X5203Y1964D01*
D02*
G37*
G36*
X5177D02*
X5172Y1963D01*
X5157Y1953D01*
X5147Y1938D01*
X5146Y1933D01*
X5177D01*
Y1964D01*
D02*
G37*
G36*
X5842Y1909D02*
X5657D01*
Y1896D01*
X5369D01*
X5366Y1898D01*
X5350Y1901D01*
X5334Y1898D01*
X5321Y1889D01*
X5312Y1876D01*
X5309Y1860D01*
X5312Y1844D01*
X5321Y1831D01*
X5334Y1822D01*
X5350Y1819D01*
X5366Y1822D01*
X5369Y1824D01*
X5657D01*
Y1724D01*
X5714D01*
Y1648D01*
X5703Y1644D01*
X5684Y1629D01*
X5669Y1610D01*
X5660Y1587D01*
X5657Y1563D01*
X5660Y1539D01*
X5669Y1516D01*
X5684Y1497D01*
X5703Y1482D01*
X5726Y1473D01*
X5750Y1470D01*
X5774Y1473D01*
X5797Y1482D01*
X5816Y1497D01*
X5831Y1516D01*
X5840Y1539D01*
X5843Y1563D01*
X5840Y1587D01*
X5831Y1610D01*
X5816Y1629D01*
X5797Y1644D01*
X5786Y1648D01*
Y1724D01*
X5842D01*
Y1909D01*
D02*
G37*
G36*
X5234Y1907D02*
X5203D01*
Y1876D01*
X5208Y1877D01*
X5223Y1887D01*
X5233Y1902D01*
X5234Y1907D01*
D02*
G37*
G36*
X5177D02*
X5146D01*
X5147Y1902D01*
X5157Y1887D01*
X5172Y1877D01*
X5177Y1876D01*
Y1907D01*
D02*
G37*
G36*
X4420Y1951D02*
X4404Y1948D01*
X4391Y1939D01*
X4382Y1926D01*
X4379Y1910D01*
X4382Y1894D01*
X4391Y1881D01*
X4404Y1872D01*
X4420Y1869D01*
X4436Y1872D01*
X4449Y1881D01*
X4458Y1894D01*
X4461Y1910D01*
X4458Y1926D01*
X4449Y1939D01*
X4436Y1948D01*
X4420Y1951D01*
D02*
G37*
G36*
X2110Y1916D02*
X2086Y1913D01*
X2063Y1904D01*
X2044Y1889D01*
X2029Y1870D01*
X2020Y1847D01*
X2017Y1823D01*
X2020Y1799D01*
X2029Y1776D01*
X2044Y1757D01*
X2063Y1742D01*
X2086Y1733D01*
X2110Y1730D01*
X2134Y1733D01*
X2157Y1742D01*
X2176Y1757D01*
X2191Y1776D01*
X2195Y1787D01*
X2543D01*
X2557Y1790D01*
X2558Y1791D01*
X2566Y1792D01*
X2579Y1801D01*
X2588Y1814D01*
X2591Y1830D01*
X2588Y1846D01*
X2579Y1859D01*
X2566Y1868D01*
X2550Y1871D01*
X2534Y1868D01*
X2521Y1859D01*
X2521Y1859D01*
X2195D01*
X2191Y1870D01*
X2176Y1889D01*
X2157Y1904D01*
X2134Y1913D01*
X2110Y1916D01*
D02*
G37*
G36*
X1743Y1674D02*
Y1643D01*
X1774D01*
X1773Y1648D01*
X1763Y1663D01*
X1748Y1673D01*
X1743Y1674D01*
D02*
G37*
G36*
X1717D02*
X1712Y1673D01*
X1697Y1663D01*
X1687Y1648D01*
X1686Y1643D01*
X1717D01*
Y1674D01*
D02*
G37*
G36*
X1774Y1617D02*
X1743D01*
Y1586D01*
X1748Y1587D01*
X1763Y1597D01*
X1773Y1612D01*
X1774Y1617D01*
D02*
G37*
G36*
X1717D02*
X1686D01*
X1687Y1612D01*
X1697Y1597D01*
X1712Y1587D01*
X1717Y1586D01*
Y1617D01*
D02*
G37*
G36*
X1520Y1551D02*
X1504Y1548D01*
X1491Y1539D01*
X1482Y1526D01*
X1479Y1510D01*
X1482Y1494D01*
X1491Y1481D01*
X1493Y1480D01*
X1494Y1478D01*
X1493Y1464D01*
X1492Y1463D01*
X1487Y1464D01*
X1480Y1466D01*
X1419D01*
X1416Y1468D01*
X1400Y1471D01*
X1384Y1468D01*
X1371Y1459D01*
X1362Y1446D01*
X1359Y1430D01*
X1362Y1414D01*
X1371Y1401D01*
X1384Y1392D01*
X1400Y1389D01*
X1416Y1392D01*
X1419Y1394D01*
X1468D01*
X1471Y1392D01*
X1471Y1392D01*
X1471Y1392D01*
X1478Y1391D01*
X1485Y1389D01*
X1844D01*
X2468Y766D01*
Y632D01*
X2524D01*
Y555D01*
X2513Y551D01*
X2494Y536D01*
X2479Y517D01*
X2470Y494D01*
X2467Y470D01*
X2470Y446D01*
X2474Y435D01*
X2395Y356D01*
X1976D01*
X1327Y1005D01*
X1315Y1013D01*
X1301Y1016D01*
X1109D01*
X1106Y1018D01*
X1090Y1021D01*
X1074Y1018D01*
X1061Y1009D01*
X1052Y996D01*
X1049Y980D01*
X1052Y964D01*
X1061Y951D01*
X1074Y942D01*
X1090Y939D01*
X1106Y942D01*
X1109Y944D01*
X1287D01*
X1936Y295D01*
X1948Y287D01*
X1961Y284D01*
X2410D01*
X2424Y287D01*
X2435Y295D01*
X2525Y384D01*
X2536Y380D01*
X2560Y377D01*
X2584Y380D01*
X2607Y389D01*
X2626Y404D01*
X2641Y423D01*
X2650Y446D01*
X2653Y470D01*
X2650Y494D01*
X2641Y517D01*
X2626Y536D01*
X2607Y551D01*
X2596Y555D01*
Y632D01*
X2653D01*
Y806D01*
X2665Y811D01*
X2720Y756D01*
X2732Y749D01*
X2745Y746D01*
X2868D01*
Y632D01*
X2924D01*
Y555D01*
X2913Y551D01*
X2894Y536D01*
X2879Y517D01*
X2870Y494D01*
X2867Y470D01*
X2870Y446D01*
X2874Y435D01*
X2685Y246D01*
X909D01*
X906Y248D01*
X890Y251D01*
X874Y248D01*
X861Y239D01*
X852Y226D01*
X849Y210D01*
X852Y194D01*
X861Y181D01*
X874Y172D01*
X890Y169D01*
X906Y172D01*
X909Y174D01*
X2700D01*
X2714Y177D01*
X2725Y185D01*
X2925Y384D01*
X2936Y380D01*
X2960Y377D01*
X2984Y380D01*
X3007Y389D01*
X3026Y404D01*
X3041Y423D01*
X3050Y446D01*
X3053Y470D01*
X3050Y494D01*
X3041Y517D01*
X3026Y536D01*
X3007Y551D01*
X2996Y555D01*
Y632D01*
X3053D01*
Y816D01*
X2906D01*
X2902Y817D01*
X2760D01*
X2042Y1535D01*
X2030Y1543D01*
X2017Y1546D01*
X1539D01*
X1536Y1548D01*
X1520Y1551D01*
D02*
G37*
G36*
X5030Y1241D02*
X5014Y1238D01*
X5001Y1229D01*
X4992Y1216D01*
X4992Y1212D01*
X4625Y846D01*
X4049D01*
X4046Y848D01*
X4030Y851D01*
X4014Y848D01*
X4001Y839D01*
X3992Y826D01*
X3989Y810D01*
X3992Y794D01*
X4001Y781D01*
X4014Y772D01*
X4030Y769D01*
X4046Y772D01*
X4049Y774D01*
X4640D01*
X4654Y777D01*
X4665Y785D01*
X5042Y1162D01*
X5046Y1162D01*
X5059Y1171D01*
X5068Y1184D01*
X5071Y1200D01*
X5068Y1216D01*
X5059Y1229D01*
X5046Y1238D01*
X5030Y1241D01*
D02*
G37*
G36*
X2273Y827D02*
X2088D01*
Y642D01*
X2273D01*
Y827D01*
D02*
G37*
G36*
X1470Y666D02*
X1445Y663D01*
X1422Y653D01*
X1402Y638D01*
X1387Y618D01*
X1377Y595D01*
X1374Y570D01*
X1377Y545D01*
X1387Y522D01*
X1402Y502D01*
X1422Y487D01*
X1445Y477D01*
X1470Y474D01*
X1495Y477D01*
X1518Y487D01*
X1538Y502D01*
X1553Y522D01*
X1563Y545D01*
X1566Y570D01*
X1563Y595D01*
X1553Y618D01*
X1538Y638D01*
X1518Y653D01*
X1495Y663D01*
X1470Y666D01*
D02*
G37*
G36*
X770D02*
X745Y663D01*
X722Y653D01*
X702Y638D01*
X687Y618D01*
X677Y595D01*
X674Y570D01*
X677Y545D01*
X687Y522D01*
X702Y502D01*
X722Y487D01*
X745Y477D01*
X770Y474D01*
X795Y477D01*
X818Y487D01*
X838Y502D01*
X853Y522D01*
X863Y545D01*
X866Y570D01*
X863Y595D01*
X853Y618D01*
X838Y638D01*
X818Y653D01*
X795Y663D01*
X770Y666D01*
D02*
G37*
G36*
X5153Y444D02*
Y413D01*
X5184D01*
X5183Y418D01*
X5173Y433D01*
X5158Y443D01*
X5153Y444D01*
D02*
G37*
G36*
X5127D02*
X5122Y443D01*
X5107Y433D01*
X5097Y418D01*
X5096Y413D01*
X5127D01*
Y444D01*
D02*
G37*
G36*
X2180Y573D02*
X2156Y570D01*
X2133Y561D01*
X2114Y546D01*
X2099Y527D01*
X2090Y504D01*
X2087Y480D01*
X2090Y456D01*
X2099Y433D01*
X2114Y414D01*
X2133Y399D01*
X2156Y390D01*
X2180Y387D01*
X2204Y390D01*
X2227Y399D01*
X2246Y414D01*
X2261Y433D01*
X2270Y456D01*
X2273Y480D01*
X2270Y504D01*
X2261Y527D01*
X2246Y546D01*
X2227Y561D01*
X2204Y570D01*
X2180Y573D01*
D02*
G37*
G36*
X5184Y387D02*
X5153D01*
Y356D01*
X5158Y357D01*
X5173Y367D01*
X5183Y382D01*
X5184Y387D01*
D02*
G37*
G36*
X5127D02*
X5096D01*
X5097Y382D01*
X5107Y367D01*
X5122Y357D01*
X5127Y356D01*
Y387D01*
D02*
G37*
%LPD*%
G36*
X2647Y829D02*
X2642Y816D01*
X2518D01*
X1884Y1450D01*
X1873Y1458D01*
X1859Y1461D01*
X1553D01*
X1550Y1465D01*
X1548Y1473D01*
X1550Y1474D01*
X2002D01*
X2647Y829D01*
D02*
G37*
D12*
X350Y240D02*
G03*
X350Y240I-10J0D01*
G01*
D02*
G03*
X350Y240I-10J0D01*
G01*
X2790Y4400D02*
G03*
X2790Y4400I-10J0D01*
G01*
D02*
G03*
X2790Y4400I-10J0D01*
G01*
X2120Y2290D02*
G03*
X2120Y2290I-10J0D01*
G01*
D02*
G03*
X2120Y2290I-10J0D01*
G01*
X6070Y2027D02*
G03*
X6070Y2027I-10J0D01*
G01*
D02*
G03*
X6070Y2027I-10J0D01*
G01*
X2970Y937D02*
G03*
X2970Y937I-10J0D01*
G01*
D02*
G03*
X2970Y937I-10J0D01*
G01*
X2570D02*
G03*
X2570Y937I-10J0D01*
G01*
D02*
G03*
X2570Y937I-10J0D01*
G01*
X2190Y947D02*
G03*
X2190Y947I-10J0D01*
G01*
D02*
G03*
X2190Y947I-10J0D01*
G01*
X5760Y2030D02*
G03*
X5760Y2030I-10J0D01*
G01*
D02*
G03*
X5760Y2030I-10J0D01*
G01*
D13*
X170Y320D02*
X420D01*
X170D02*
Y820D01*
X420D01*
Y270D02*
X1870D01*
Y870D01*
X420D02*
X1870D01*
X420Y270D02*
Y870D01*
X170Y320D02*
X420D01*
X170D02*
Y820D01*
X420D01*
Y270D02*
X1870D01*
Y870D01*
X420D02*
X1870D01*
X420Y270D02*
Y870D01*
D15*
X1350Y1840D02*
G03*
X1350Y1840I-50J0D01*
G01*
X1710Y1750D02*
Y2150D01*
X1210Y1750D02*
Y2150D01*
X1710D01*
X1210Y1750D02*
X1710D01*
X4910Y2028D02*
X5050D01*
X4910Y1813D02*
X5050D01*
X4910D02*
Y2028D01*
X5050Y1813D02*
Y2028D01*
X5032Y550D02*
X5247D01*
X5032Y690D02*
X5247D01*
X5032Y550D02*
Y690D01*
X5247Y550D02*
Y690D01*
X1410Y1950D02*
X1510D01*
X1460Y1900D02*
Y2000D01*
X4980Y1870D02*
Y1970D01*
X4930Y1920D02*
X5030D01*
X5140Y570D02*
Y670D01*
X5090Y620D02*
X5190D01*
D16*
X2841Y4248D02*
Y4552D01*
Y4248D02*
X3399D01*
Y4552D01*
X2841D02*
X3399D01*
X1735Y1580D02*
Y2320D01*
X1185Y1580D02*
Y2320D01*
X1735D01*
X1185Y1580D02*
X1735D01*
X1958Y2229D02*
X2262D01*
X1958Y1671D02*
Y2229D01*
Y1671D02*
X2262D01*
Y2229D01*
X4800Y2055D02*
X5160D01*
X4800Y1785D02*
X5160D01*
X4800D02*
Y2055D01*
X5160Y1785D02*
Y2055D01*
X5908Y1966D02*
X6212D01*
X5908Y1408D02*
Y1966D01*
Y1408D02*
X6212D01*
Y1966D01*
X3112Y318D02*
Y876D01*
X2808Y318D02*
X3112D01*
X2808D02*
Y876D01*
X3112D01*
X2712Y318D02*
Y876D01*
X2408Y318D02*
X2712D01*
X2408D02*
Y876D01*
X2712D01*
X2332Y328D02*
Y886D01*
X2028Y328D02*
X2332D01*
X2028D02*
Y886D01*
X2332D01*
X5598Y1969D02*
X5902D01*
X5598Y1411D02*
Y1969D01*
Y1411D02*
X5902D01*
Y1969D01*
X5005Y440D02*
X5275D01*
X5005Y800D02*
X5275D01*
X5005Y440D02*
Y800D01*
X5275Y440D02*
Y800D01*
D43*
X1520Y2080D02*
X2107D01*
X5350Y1860D02*
X5707D01*
X5750Y1817D01*
Y1563D02*
Y1817D01*
X2543Y1823D02*
X2550Y1830D01*
X2110Y1823D02*
X2543D01*
X2107Y2080D02*
X2110Y2077D01*
X1400Y1430D02*
X1480D01*
X1485Y1425D01*
X1859D01*
X2560Y724D01*
X4640Y810D02*
X5030Y1200D01*
X4030Y810D02*
X4640D01*
X1961Y320D02*
X2410D01*
X2560Y470D01*
X1301Y980D02*
X1961Y320D01*
X1090Y980D02*
X1301D01*
X1520Y1510D02*
X2017D01*
X2745Y781D01*
X2902D01*
X2960Y724D01*
Y470D02*
Y724D01*
X2700Y210D02*
X2960Y470D01*
X890Y210D02*
X2700D01*
X2560Y470D02*
Y724D01*
X2775Y4460D02*
X2835Y4400D01*
X130Y4460D02*
X2775D01*
X2835Y4400D02*
X2993D01*
D44*
X5230Y2060D02*
X5230Y2060D01*
X6060D01*
X5360Y500D02*
X5390Y530D01*
X1800Y2230D02*
X3220Y3650D01*
X3590D01*
X5390Y530D02*
Y890D01*
X6060Y1560D01*
Y2060D02*
Y2140D01*
Y1814D02*
Y2060D01*
X3450Y4050D02*
X3590Y3910D01*
X1660Y4050D02*
X3450D01*
X4586Y3654D02*
X6080Y2160D01*
X4586Y3654D02*
X4630D01*
X3594D02*
X4586D01*
X3590Y3650D02*
X3594Y3654D01*
X4630D02*
X4776Y3800D01*
X4850D01*
X6060Y1560D02*
Y1814D01*
Y2140D02*
X6080Y2160D01*
D47*
X3247Y4400D02*
D03*
X2110Y1823D02*
D03*
X6060Y1560D02*
D03*
X2960Y470D02*
D03*
X2560D02*
D03*
X2180Y480D02*
D03*
X5750Y1563D02*
D03*
D48*
X2993Y4400D02*
D03*
D49*
X2110Y2077D02*
D03*
X6060Y1814D02*
D03*
X2960Y724D02*
D03*
X2560D02*
D03*
X2180Y734D02*
D03*
X5750Y1817D02*
D03*
D50*
X7010Y3800D02*
D03*
X4850D02*
D03*
X300Y3760D02*
D03*
X2460D02*
D03*
D51*
X1470Y570D02*
D03*
X770D02*
D03*
D52*
X5230Y2060D02*
D03*
X5190Y1920D02*
D03*
X1730Y1630D02*
D03*
X5140Y400D02*
D03*
D53*
X5920Y3500D02*
D03*
X5360Y500D02*
D03*
X1800Y2230D02*
D03*
X1660Y4050D02*
D03*
D54*
X1520Y2080D02*
D03*
X5350Y1860D02*
D03*
X3590Y3650D02*
D03*
Y3910D02*
D03*
X4420Y1910D02*
D03*
X2550Y1830D02*
D03*
X1400Y1430D02*
D03*
X5030Y1200D02*
D03*
X4030Y810D02*
D03*
X1090Y980D02*
D03*
X1520Y1510D02*
D03*
X890Y210D02*
D03*
X130Y4460D02*
D03*
M02*
