M48
;Layer_Color=9474304
;FILE_FORMAT=4:2
METRIC,LZ
;TYPE=PLATED
T1F00S00C0.20
T2F00S00C0.30
T3F00S00C0.50
T4F00S00C1.10
T5F00S00C2.00
;TYPE=NON_PLATED
T6F00S00C1.70
%
T01
X00173Y00163
X00519Y00192
X00514Y0004
T02
X00089Y00021
X00109Y00098
X0014Y00143
X00152Y00151
Y00208
X00255Y00183
X00442Y00191
X00523Y00206
X00535Y00186
X00503Y0012
X00403Y00081
X00359Y00365
Y00391
X00013Y00446
T03
X0018Y00223
X00536Y0005
X00592Y0035
X00166Y00405
T04
X00218Y00048
Y000734
X00256Y000724
Y00047
X00296
Y000724
X00211Y001823
Y002077
X00575Y001817
Y001563
X00606Y00156
Y001814
X003247Y0044
X002993
T05
X00701Y0038
X00485
X00246Y00376
X0003
T06
X00077Y00057
X00147
M30
